<?xml version="1.0" standalone="no"?>
<!DOCTYPE svg PUBLIC "-//W3C//DTD SVG 20010904//EN"
 "http://www.w3.org/TR/2001/REC-SVG-20010904/DTD/svg10.dtd">
<svg version="1.0" xmlns="http://www.w3.org/2000/svg"
 width="512.000000pt" height="512.000000pt" viewBox="0 0 512.000000 512.000000"
 preserveAspectRatio="xMidYMid meet">
<metadata>
Created by potrace 1.11, written by Peter Selinger 2001-2013
</metadata>
<g transform="translate(0.000000,512.000000) scale(0.100000,-0.100000)"
fill="#000000" stroke="none">
<path d="M1789 5099 c-170 -41 -316 -137 -423 -279 -41 -54 -86 -137 -86 -158
0 -7 -20 -4 -55 8 -199 68 -392 28 -546 -114 -80 -75 -141 -194 -155 -303 -3
-26 -6 -824 -6 -1773 -1 -1938 6 -1781 -76 -1918 -70 -117 -83 -227 -41 -334
41 -104 87 -149 213 -209 41 -20 2648 -21 2668 -1 6 6 20 12 29 12 17 0 112
70 137 99 6 9 25 43 41 76 51 104 45 228 -15 328 -67 113 -103 226 -73 228 8
0 88 2 179 4 281 5 462 58 666 195 264 179 439 461 490 790 9 60 11 1197 2
1280 -9 90 -14 115 -43 214 -110 379 -430 683 -816 776 -107 26 -170 32 -349
34 l-145 1 2 110 c1 92 -2 121 -22 179 -98 285 -419 435 -690 321 l-34 -14
-38 74 c-91 176 -268 319 -458 370 -91 25 -263 27 -356 4z m1897 -1734 c182
-27 335 -178 371 -365 10 -54 9 -1126 -1 -1190 -20 -123 -130 -264 -249 -320
-85 -39 -130 -47 -287 -46 l-135 1 -1 962 c-1 851 1 963 14 965 29 6 240 1
288 -7z"/>
</g>
</svg>
